<svg fill="none" height="191" viewBox="0 0 158 191" width="158" xmlns="http://www.w3.org/2000/svg"><g stroke="#37352f"><path d="m23.0157 181.238-16.6535-12.688 14.0551-12.339-16.4173-22.932 16.4173-10.826-16.4173-27.3549 19.0157-4.4234-11.6929-27.3554h16.6536l-7.5591-30.2655 21.2599 4.4234 3.4252-23.1647 13.2283 12.339 9.5669-21.6515 11.693 17.2281 11.811-17.2281 6.8504 19.4398 25.039-2.2117-9.448 15.2491 17.362 6.0531-9.803 10.8258 23.858 8.9632-14.055 11.9898 20.197 7.1008-15.237 12.6882 15.237 16.1809-13.347 12.339 15.945 14.201-15.945 13.503 13.347 13.038-15.237 13.153" stroke-width="4"/><path d="m24.1904 189.481c-8.577-53.869-9.6461-161.6094 54.6936-161.6094" stroke-width="8"/><path d="m133.577 189.365c8.577-53.87 9.647-161.6096-54.6931-161.6096" stroke-width="8"/><path d="m63.4429 104.613c.2407 2.632 2.9461 7.895 11.8421 7.895" stroke-width="4"/></g><circle cx="59.9599" cy="86.7338" fill="#37352f" r="7.19814"/><ellipse cx="59.8437" cy="85.1085" fill="#fff" rx="3.59907" ry="3.48297"/><circle cx="86.1981" cy="86.7338" fill="#37352f" r="7.19814"/><ellipse cx="86.082" cy="85.1085" fill="#fff" rx="3.59907" ry="3.48297"/></svg>