<svg fill="none" height="300" viewBox="0 0 300 300" width="300" xmlns="http://www.w3.org/2000/svg"><path d="m0 0h300v300h-300z" fill="#000"/><path d="m33 179.379 39.0038 38.951h-39.0038zm0-9.738 48.7548 48.689h39.0042l-87.759-87.641zm0-48.69 97.51 97.379h39.003l-136.513-136.33zm48.7548 0 97.5092 97.379v-38.951l-97.5092-97.379zm48.7552-38.951v38.951l48.754 48.69v-38.952z" fill="#fff"/><path d="m266.863 203.174c-9.993 0-19.572-3.966-26.632-11.016l-54.231-54.158v80.754h80.863z" fill="#fff"/><path d="m209.563 202.75c4.308 0 7.8-3.488 7.8-7.791 0-4.302-3.492-7.79-7.8-7.79-4.309 0-7.801 3.488-7.801 7.79 0 4.303 3.492 7.791 7.801 7.791z" fill="#000"/><g fill="#fff"><path d="m33 218.33h39.0038l-39.0038-38.951z"/><path d="m81.7548 130.689-48.7548-48.689v38.951l48.7548 48.69z"/><path d="m33 130.689v38.952l48.7548 48.689v-38.951z"/><path d="m130.51 130.689-48.7552-48.689v38.951l48.7552 48.69z"/><path d="m81.7548 218.33h39.0042l-39.0042-38.951z"/><path d="m81.7548 130.689v38.952l48.7552 48.689v-38.951z"/></g></svg>