<svg fill="none" height="156" viewBox="0 0 800 156" width="800" xmlns="http://www.w3.org/2000/svg"><path d="m0 97.3787 39.0038 38.9513h-39.0038zm0-9.7379 48.7548 48.6892h39.0038l-87.7586-87.6407zm0-48.6893 97.5096 97.3785h39.0034l-136.513-136.33zm48.7548 0 97.5092 97.3785v-38.9513l-97.5092-97.3787zm48.7548-38.9515v38.9515l48.7544 48.6893v-38.9515z" fill="#f9bd2b"/><path d="m234.023 120.75c-9.993 0-19.572-3.966-26.632-11.016l-54.231-54.158v80.754h80.863z" fill="#000"/><path d="m176.563 120.75c4.308 0 7.8-3.488 7.8-7.791 0-4.302-3.492-7.79-7.8-7.79-4.309 0-7.801 3.488-7.801 7.79 0 4.303 3.492 7.791 7.801 7.791z" fill="#fff"/><path d="m0 136.33h39.0038l-39.0038-38.9513z" fill="#1d4aff"/><path d="m48.7548 48.6893-48.7548-48.6893v38.9515l48.7548 48.6893z" fill="#1d4aff"/><path d="m0 48.6894v38.9514l48.7548 48.6892v-38.9513z" fill="#1d4aff"/><path d="m97.5096 48.6893-48.7548-48.6893v38.9515l48.7548 48.6893z" fill="#f54e00"/><path d="m48.7548 136.33h39.0038l-39.0038-38.9513z" fill="#f54e00"/><path d="m48.7548 48.6894v38.9514l48.7548 48.6892v-38.9513z" fill="#f54e00"/><g fill="#000"><path d="m391.942 82.4058c0 17.4502-7.817 29.1592-34.207 29.1592h-14.54v24.765h-15.883v-82.9665h30.423c26.39.0078 34.207 11.592 34.207 29.0423zm-15.883 0c0-10.1274-3.175-14.3965-15.515-14.3965h-17.349v28.9176h17.349c12.34 0 15.515-4.7599 15.515-14.5211z"/><path d="m399.883 104.857c0-19.156 10.625-32.5787 30.423-32.5787 19.791 0 30.423 13.4227 30.423 32.5787 0 19.157-10.632 32.696-30.423 32.696s-30.423-13.547-30.423-32.696zm44.964 0c0-13.4223-3.784-17.9329-14.541-17.9329-10.75 0-14.541 4.5106-14.541 17.9329 0 13.423 3.784 18.058 14.541 18.058 10.749-.008 14.541-4.643 14.541-18.058z"/><path d="m471.112 113.762c11.116 6.956 19.307 9.153 28.348 9.153 5.866 0 8.307-2.321 8.307-5.367 0-3.537-2.199-5.243-11.974-6.832-19.182-2.929-24.681-10.494-24.681-20.1305 0-12.5657 10.507-18.2994 23.581-18.2994 8.183 0 18.083 2.1969 24.066 6.3413v14.638c-8.917-4.3937-18.566-6.3413-25.29-6.3413-4.4 0-6.475 1.5892-6.475 4.3937 0 3.0538 1.591 4.7599 11.366 6.8321 18.324 3.7781 25.29 7.6891 25.29 19.7641 0 12.441-11.116 19.639-25.415 19.639-9.533 0-18.207-1.83-27.123-7.806z"/><path d="m555.407 88.1394v33.5526h16.733v14.638h-32.616v-48.1906h-9.774v-14.6379h9.774v-22.5685h15.883v22.5685h16.733v14.6379z"/><path d="m656.317 53.3713v82.9667h-15.882v-32.945h-36.531v32.945h-15.882v-82.9667h15.882v35.3835h36.531v-35.3835z"/><path d="m668.541 104.857c0-19.156 10.625-32.5787 30.423-32.5787 19.791 0 30.423 13.4227 30.423 32.5787 0 19.157-10.632 32.696-30.423 32.696-19.79 0-30.423-13.547-30.423-32.696zm44.956 0c0-13.4223-3.783-17.9329-14.54-17.9329-10.75 0-14.541 4.5106-14.541 17.9329 0 13.423 3.783 18.058 14.541 18.058 10.757-.008 14.54-4.643 14.54-18.058z"/><path d="m800 73.5014v82.3516h-50.089v-14.638h34.207v-17.084c-3.667 4.027-9.042 7.322-17.841 7.322-18.324 0-27.123-13.788-27.123-29.649 0-15.7369 8.799-29.5257 27.123-29.5257 8.799 0 14.174 3.2953 17.841 7.9305v-6.7074zm-15.882 28.3026c0-9.3956-3.784-14.8877-14.541-14.8877-10.75 0-14.541 5.4921-14.541 14.8877 0 9.519 3.791 15.004 14.541 15.004 10.749 0 14.541-4.877 14.541-15.004z"/></g></svg>