<svg fill="none" height="30" viewBox="0 0 150 30" width="150" xmlns="http://www.w3.org/2000/svg"><path d="m0 18.2585 7.31322 7.3034h-7.31322zm0-1.8259 9.14153 9.1293h7.31317l-16.4547-16.43265zm0-9.1292 18.283 18.2585h7.3133l-25.5963-25.5619zm9.14153 0 18.28307 18.2585v-7.3034l-18.28307-18.2585zm9.14147-7.3034v7.3034l9.1416 9.1292v-7.30335z" fill="#f9bd2b"/><path d="m43.8793 22.6406c-1.8736 0-3.6698-.7435-4.9935-2.0654l-10.1683-10.1547v15.1414h15.1618z" fill="#000"/><path d="m33.1055 22.6405c.8078 0 1.4626-.6539 1.4626-1.4606s-.6548-1.4607-1.4626-1.4607-1.4626.654-1.4626 1.4607.6548 1.4606 1.4626 1.4606z" fill="#fff"/><path d="m0 25.5619h7.31322l-7.31322-7.3034z" fill="#1d4aff"/><path d="m9.14153 9.12925-9.14153-9.12925v7.3034l9.14153 9.1292z" fill="#1d4aff"/><path d="m0 9.12926v7.30344l9.14153 9.1292v-7.3034z" fill="#1d4aff"/><path d="m18.283 9.12925-9.14147-9.12925v7.3034l9.14147 9.1292z" fill="#f54e00"/><path d="m9.14153 25.5619h7.31317l-7.31317-7.3034z" fill="#f54e00"/><path d="m9.14153 9.12926v7.30344l9.14147 9.1292v-7.3034z" fill="#f54e00"/><g fill="#000"><path d="m73.4891 15.4511c0 3.2719-1.4656 5.4673-6.4137 5.4673h-2.7264v4.6435h-2.9779v-15.5562h5.7043c4.9481.0014 6.4137 2.1735 6.4137 5.4454zm-2.978 0c0-1.8989-.5953-2.6994-2.9092-2.6994h-3.2529v5.4221h3.2529c2.3139 0 2.9092-.8925 2.9092-2.7227z"/><path d="m74.978 19.6608c0-3.5919 1.9922-6.1086 5.7044-6.1086 3.7107 0 5.7043 2.5167 5.7043 6.1086 0 3.5918-1.9936 6.1304-5.7043 6.1304-3.7108 0-5.7044-2.5401-5.7044-6.1304zm8.4307 0c0-2.5168-.7093-3.3625-2.7263-3.3625-2.0156 0-2.7264.8457-2.7264 3.3625 0 2.5167.7094 3.3858 2.7264 3.3858 2.0155-.0014 2.7263-.8705 2.7263-3.3858z"/><path d="m88.3334 21.3303c2.0843 1.3044 3.6201 1.7163 5.3153 1.7163 1.0999 0 1.5577-.4353 1.5577-1.0064 0-.6631-.4125-.983-2.2452-1.281-3.5966-.5492-4.6278-1.9675-4.6278-3.7744 0-2.3561 1.9702-3.4312 4.4216-3.4312 1.5343 0 3.3904.412 4.5123 1.189v2.7447c-1.6718-.8239-3.4811-1.189-4.7419-1.189-.825 0-1.214.2979-1.214.8238 0 .5726.2983.8925 2.131 1.281 3.4358.7084 4.742 1.4417 4.742 3.7058 0 2.3327-2.0843 3.6823-4.7653 3.6823-1.7874 0-3.4139-.3432-5.0857-1.4636z"/><path d="m104.139 16.5261v6.2912h3.137v2.7446h-6.115v-9.0358h-1.8329v-2.7446h1.8329v-4.23156h2.978v4.23156h3.137v2.7446z"/><path d="m123.06 10.0071v15.5563h-2.978v-6.1772h-6.85v6.1772h-2.978v-15.5563h2.978v6.6344h6.85v-6.6344z"/><path d="m125.352 19.6608c0-3.5919 1.992-6.1086 5.704-6.1086 3.711 0 5.704 2.5167 5.704 6.1086 0 3.5918-1.993 6.1304-5.704 6.1304s-5.704-2.5401-5.704-6.1304zm8.429 0c0-2.5168-.71-3.3625-2.727-3.3625-2.015 0-2.726.8457-2.726 3.3625 0 2.5167.709 3.3858 2.726 3.3858 2.017-.0014 2.727-.8705 2.727-3.3858z"/><path d="m150 13.7815v15.4409h-9.392v-2.7447h6.414v-3.2032c-.687.7551-1.695 1.373-3.345 1.373-3.436 0-5.086-2.5854-5.086-5.5593 0-2.9506 1.65-5.536 5.086-5.536 1.65 0 2.658.6179 3.345 1.487v-1.2577zm-2.978 5.3067c0-1.7616-.709-2.7914-2.726-2.7914-2.016 0-2.727 1.0298-2.727 2.7914 0 1.7849.711 2.8132 2.727 2.8132 2.015 0 2.726-.9143 2.726-2.8132z"/></g></svg>